<?xml version="1.0" ?><svg viewBox="0 0 64 64" xmlns="http://www.w3.org/2000/svg"><g id="outline"><rect height="2" width="2" x="12" y="51"/><path d="M56,8H14a3,3,0,0,0-3,3V25H7a3,3,0,0,0-3,3V53a3,3,0,0,0,3,3H19a3,3,0,0,0,3-3V47h7v2.723l-2.857,4.762A1,1,0,0,0,27,56H43a1,1,0,0,0,.857-1.515L41,49.723V47H56a3,3,0,0,0,3-3V11A3,3,0,0,0,56,8ZM20,53a1,1,0,0,1-1,1H7a1,1,0,0,1-1-1V50H20Zm0-5H6V31H20Zm0-19H6V28a1,1,0,0,1,1-1H19a1,1,0,0,1,1,1Zm-1-4H17V14h5V28A3,3,0,0,0,19,25ZM41.233,54H28.767l2.09-3.485A1,1,0,0,0,31,50V47h8v3a1,1,0,0,0,.143.515ZM57,44a1,1,0,0,1-1,1H22V39H57Zm0-7H22V34h1a1,1,0,0,0,1-1V13a1,1,0,0,0-1-1H16a1,1,0,0,0-1,1V25H13V11a1,1,0,0,1,1-1H56a1,1,0,0,1,1,1Z"/><rect height="2" width="2" x="34" y="41"/><path d="M13,43a5,5,0,1,0-5-5A5.006,5.006,0,0,0,13,43Zm0-8a3,3,0,1,1-3,3A3,3,0,0,1,13,35Z"/><rect height="2" width="10" x="8" y="44"/><path d="M35,12a9,9,0,1,0,9,9A9.01,9.01,0,0,0,35,12Zm0,16a7,7,0,1,1,7-7A7.009,7.009,0,0,1,35,28Z"/><rect height="2" width="16" x="27" y="32"/><path d="M54,12H47a1,1,0,0,0-1,1v9a1,1,0,0,0,1,1h7a1,1,0,0,0,1-1V13A1,1,0,0,0,54,12Zm-1,9H48V14h5Z"/><path d="M54,25H47a1,1,0,0,0-1,1v7a1,1,0,0,0,1,1h7a1,1,0,0,0,1-1V26A1,1,0,0,0,54,25Zm-1,7H48V27h5Z"/></g></svg>